<svg xmlns="http://www.w3.org/2000/svg" width="64" height="48" viewBox="0 0 64 48"><rect class="aqua right-1" x="51" y="10" width="7" height="8" fill="#55b4c8"/><path fill="#55b4c8" d="M58,10l-17,0l-8,8l25,0l0,-8Z"/><rect x="36" y="22" width="7" height="8" fill="#ff8c00"/><path fill="#ff8c00" d="M43,30l0,-7.995l-14,-0l-8.008,7.995l22.008,0Z"/><rect x="24" y="34" width="7" height="8" fill="#f00"/><path fill="#f00" d="M13,38.01l4,-4.01l14,0l0,8l-18,0l0,-3.99Z"/><rect x="11" y="6" width="7" height="8" fill="#b4bebe"/><path fill="#b4bebe" d="M41,10l-4,4l-26,0l0,-8l30,0l0,4Z"/><rect x="16" y="18" width="7" height="8" fill="#b4bebe"/><path fill="#b4bebe" d="M16,26l9,0l8,-8l-17,-0l0,8Z"/><rect x="6" y="30" width="7" height="8" fill="#b4bebe"/><path fill="#b4bebe" d="M6,37.988l7,0.012l7.992,-8l-14.992,-0.047l-0,8.035Z"/></svg>
